<svg width="68" height="68" viewBox="0 0 68 68" fill="none" xmlns="http://www.w3.org/2000/svg">
<path d="M33.6412 53.486C34.1464 53.4861 34.6345 53.6709 35.015 54.0061C35.3954 54.3414 35.6426 54.8044 35.7106 55.3094L35.7301 55.596V59.8104C35.7293 60.344 35.5277 60.8575 35.1662 61.247C34.8046 61.6366 34.31 61.8733 33.7822 61.9093C33.2544 61.9453 32.7327 61.778 32.3225 61.4411C31.9122 61.1042 31.644 60.6228 31.5719 60.0941L31.5524 59.8104V55.596C31.5524 55.0371 31.7724 54.5011 32.1642 54.106C32.5559 53.7108 33.0872 53.4888 33.6412 53.4888V53.486ZM50.4135 47.6645L53.3658 50.6427C53.5654 50.8369 53.7246 51.0694 53.8342 51.3264C53.9438 51.5835 54.0016 51.8599 54.0041 52.1397C54.0066 52.4195 53.9539 52.697 53.849 52.956C53.7441 53.215 53.5891 53.4504 53.3931 53.6483C53.197 53.8463 52.9639 54.0028 52.7072 54.1089C52.4506 54.215 52.1755 54.2684 51.8982 54.2661C51.6208 54.2638 51.3467 54.2058 51.0918 54.0955C50.8369 53.9852 50.6063 53.8248 50.4135 53.6236L47.4612 50.6455C47.0805 50.2482 46.8697 49.716 46.8742 49.1635C46.8787 48.611 47.0982 48.0824 47.4853 47.6915C47.8724 47.3007 48.3962 47.0788 48.9439 47.0737C49.4916 47.0687 50.0194 47.2808 50.4135 47.6645ZM19.824 47.6645C20.2152 48.0596 20.4349 48.5952 20.4349 49.1536C20.4349 49.712 20.2152 50.2476 19.824 50.6427L16.869 53.6264C16.473 53.9987 15.9493 54.2013 15.4081 54.1917C14.8669 54.182 14.3506 53.9609 13.9679 53.5748C13.5852 53.1887 13.3659 52.6679 13.3564 52.122C13.3468 51.5761 13.5477 51.0477 13.9167 50.6483L16.869 47.6673C17.2606 47.2727 17.7916 47.051 18.3451 47.051C18.8987 47.051 19.4296 47.2727 19.8212 47.6673L19.824 47.6645ZM33.6524 18.2677C37.7335 18.2677 41.6476 19.9031 44.5334 22.8143C47.4192 25.7254 49.0404 29.6737 49.0404 33.7907C49.0404 37.9077 47.4192 41.856 44.5334 44.7671C41.6476 47.6783 37.7335 49.3137 33.6524 49.3137C29.5712 49.3137 25.6572 47.6783 22.7714 44.7671C19.8856 41.856 18.2643 37.9077 18.2643 33.7907C18.2643 29.6737 19.8856 25.7254 22.7714 22.8143C25.6572 19.9031 29.5712 18.2677 33.6524 18.2677ZM33.6524 22.4821C32.1802 22.4821 30.7225 22.7746 29.3624 23.3429C28.0023 23.9112 26.7665 24.7442 25.7255 25.7943C24.6845 26.8444 23.8588 28.091 23.2954 29.4631C22.732 30.8351 22.4421 32.3056 22.4421 33.7907C22.4421 35.2758 22.732 36.7463 23.2954 38.1183C23.8588 39.4903 24.6845 40.737 25.7255 41.7871C26.7665 42.8372 28.0023 43.6702 29.3624 44.2385C30.7225 44.8068 32.1802 45.0993 33.6524 45.0993C36.6255 45.0993 39.4769 43.9079 41.5793 41.7871C43.6816 39.6663 44.8627 36.7899 44.8627 33.7907C44.8627 30.7915 43.6816 27.9151 41.5793 25.7943C39.4769 23.6735 36.6255 22.4821 33.6524 22.4821ZM59.4152 31.7341C59.9444 31.7342 60.4539 31.937 60.8406 32.3015C61.2273 32.666 61.4625 33.165 61.4985 33.6976C61.5346 34.2303 61.3689 34.7569 61.0349 35.171C60.7009 35.5852 60.2236 35.856 59.6992 35.9288L59.4152 35.9485H55.2374C54.7082 35.9483 54.1987 35.7455 53.812 35.381C53.4253 35.0165 53.1901 34.5175 53.154 33.9849C53.118 33.4522 53.2837 32.9256 53.6177 32.5115C53.9516 32.0973 54.429 31.8265 54.9533 31.7537L55.2374 31.7341H59.4152ZM12.0673 31.6526C12.6004 31.6471 13.1153 31.8474 13.5067 32.2125C13.8981 32.5775 14.1363 33.0797 14.1726 33.6161C14.2089 34.1526 14.0405 34.6828 13.702 35.0981C13.3634 35.5134 12.8802 35.7825 12.3514 35.8501L12.0673 35.867H7.8896C7.36035 35.8668 6.8509 35.664 6.46417 35.2995C6.07745 34.935 5.8423 34.4361 5.80622 33.9034C5.77015 33.3708 5.93585 32.8442 6.26984 32.43C6.60383 32.0159 7.0812 31.745 7.60551 31.6723L7.8896 31.6526H12.0673ZM16.635 13.7555L16.869 13.9577L19.8212 16.9359C20.196 17.3114 20.4157 17.8162 20.4363 18.3486C20.4569 18.8811 20.2768 19.4016 19.9323 19.8054C19.5877 20.2093 19.1043 20.4664 18.5793 20.5252C18.0544 20.5839 17.5268 20.4399 17.1029 20.122L16.869 19.9169L13.9167 16.9387C13.542 16.5632 13.3222 16.0584 13.3016 15.526C13.281 14.9936 13.4611 14.4731 13.8057 14.0692C14.1502 13.6654 14.6336 13.4082 15.1586 13.3495C15.6836 13.2907 16.2111 13.4348 16.635 13.7526V13.7555ZM53.3658 13.9577C53.7203 14.3147 53.9358 14.7883 53.9732 15.2921C54.0105 15.796 53.8671 16.2966 53.5691 16.7027L53.3658 16.9387L50.4135 19.9169C50.0403 20.2905 49.5412 20.5083 49.0157 20.527C48.4903 20.5456 47.9772 20.3637 47.5789 20.0176C47.1806 19.6715 46.9263 19.1865 46.8668 18.6596C46.8073 18.1326 46.9469 17.6024 47.2579 17.1747L47.4585 16.9387L50.4107 13.9577C50.6047 13.7619 50.835 13.6066 51.0886 13.5006C51.3421 13.3946 51.6138 13.3401 51.8883 13.3401C52.1627 13.3401 52.4344 13.3946 52.6879 13.5006C52.9415 13.6066 53.1718 13.7619 53.3658 13.9577ZM33.6524 5.66663C34.1572 5.66665 34.6449 5.85106 35.0253 6.18575C35.4057 6.52044 35.6531 6.98277 35.7218 7.48725L35.7413 7.77383V11.9882C35.7404 12.5219 35.5388 13.0353 35.1773 13.4249C34.8158 13.8145 34.3212 14.0512 33.7934 14.0872C33.2656 14.1232 32.7439 13.9559 32.3336 13.619C31.9234 13.282 31.6551 12.8007 31.583 12.272L31.5635 11.9854V7.77102C31.5635 7.21215 31.7836 6.67618 32.1753 6.281C32.5671 5.88583 33.0984 5.66382 33.6524 5.66382V5.66663Z" fill="#F1C411"/>
</svg>
